<?xml version="1.0" encoding="UTF-8" standalone="no"?>
<!-- Created with Inkscape (http://www.inkscape.org/) -->

<svg
   xmlns:dc="http://purl.org/dc/elements/1.1/"
   xmlns:cc="http://creativecommons.org/ns#"
   xmlns:rdf="http://www.w3.org/1999/02/22-rdf-syntax-ns#"
   xmlns:svg="http://www.w3.org/2000/svg"
   xmlns="http://www.w3.org/2000/svg"
   xmlns:sodipodi="http://sodipodi.sourceforge.net/DTD/sodipodi-0.dtd"
   xmlns:inkscape="http://www.inkscape.org/namespaces/inkscape"
   id="svg4206"
   version="1.1"
   inkscape:version="0.91 r13725"
   width="102"
   height="102"
   viewBox="0 0 102 102"
   sodipodi:docname="facebook.svg">
  <metadata
     id="metadata4212">
    <rdf:RDF>
      <cc:Work
         rdf:about="">
        <dc:format>image/svg+xml</dc:format>
        <dc:type
           rdf:resource="http://purl.org/dc/dcmitype/StillImage" />
        <dc:title></dc:title>
      </cc:Work>
    </rdf:RDF>
  </metadata>
  <defs
     id="defs4210" />
  <sodipodi:namedview
     pagecolor="#ffffff"
     bordercolor="#666666"
     borderopacity="1"
     objecttolerance="10"
     gridtolerance="10"
     guidetolerance="10"
     inkscape:pageopacity="0"
     inkscape:pageshadow="2"
     inkscape:window-width="1301"
     inkscape:window-height="744"
     id="namedview4208"
     showgrid="true"
     fit-margin-top="2"
     fit-margin-left="2"
     fit-margin-right="2"
     fit-margin-bottom="2"
     inkscape:zoom="4.6752116"
     inkscape:cx="48.199493"
     inkscape:cy="60.545409"
     inkscape:window-x="65"
     inkscape:window-y="24"
     inkscape:window-maximized="1"
     inkscape:current-layer="layer6">
    <inkscape:grid
       type="xygrid"
       id="grid4225"
       originx="-1.1289062"
       originy="-1.0507799" />
  </sodipodi:namedview>
  <g
     inkscape:groupmode="layer"
     id="layer6"
     inkscape:label="Layer 5"
     style="display:inline">
    <path
       style="fill:#005f88;fill-opacity:1;stroke:none;stroke-width:10;stroke-miterlimit:4;stroke-dasharray:none;stroke-opacity:1"
       d="M 12,2 C 6.46,2 2,6.46 2,12 l 0,78 c 0,5.54 4.46,10 10,10 l 41.871094,0 0,-37.949219 -12.945287,0 0.496068,-15 12.449219,0 c -0.183685,-21.250539 1,-34 31,-30 l 0,14 c -13.644372,0 -15,-3.870594 -15,16 l 15,0 -2,15 -13,0 0,37.949219 L 90,100 c 5.54,0 10,-4.46 10,-10 l 0,-78 C 100,6.46 95.54,2 90,2 Z"
       id="rect4386"
       inkscape:connector-curvature="0"
       sodipodi:nodetypes="ssssccccccccccccsssss" />
  </g>
</svg>
